HIERARCHY
ROOT Hips
{
	OFFSET -3.958830 18.904000 13.208200
	CHANNELS 6 Xposition Yposition Zposition Zrotation Yrotation Xrotation 
	JOINT LHipJoint
	{
		OFFSET 0.000000 0.000000 0.000000
		CHANNELS 3 Zrotation Yrotation Xrotation
		JOINT LeftUpLeg
		{
			OFFSET 1.800000 -1.400000 0.085000
			CHANNELS 3 Zrotation Yrotation Xrotation
			JOINT LeftLeg
			{
				OFFSET 2.215000 -6.000000 0.000000
				CHANNELS 3 Zrotation Yrotation Xrotation
				JOINT LeftFoot
				{
					OFFSET 2.500000 -6.900000 0.000000
					CHANNELS 3 Zrotation Yrotation Xrotation
					JOINT LeftToeBase
					{
						OFFSET 0.200000 -0.500000 1.950000
						CHANNELS 3 Zrotation Yrotation Xrotation
						End Site
						{
							OFFSET 0.000000 0.000000 0.000000
						}
					}
				}
			}
		}
	}
	JOINT RHipJoint
	{
		OFFSET 0.000000 0.000000 0.000000
		CHANNELS 3 Zrotation Yrotation Xrotation
		JOINT RightUpLeg
		{
			OFFSET -1.800000 -1.400000 0.085000
			CHANNELS 3 Zrotation Yrotation Xrotation
			JOINT RightLeg
			{
				OFFSET -2.215000 -6.000000 0.000000
				CHANNELS 3 Zrotation Yrotation Xrotation
				JOINT RightFoot
				{
					OFFSET -2.500000 -6.900000 0.000000
					CHANNELS 3 Zrotation Yrotation Xrotation
					JOINT RightToeBase
					{
						OFFSET -0.200000 -0.500000 1.950000
						CHANNELS 3 Zrotation Yrotation Xrotation
						End Site
						{
							OFFSET 0.000000 0.000000 0.000000
						}
					}
				}
			}
		}
	}
	JOINT LowerBack
	{
		OFFSET 0.000000 0.000000 0.000000
		CHANNELS 3 Zrotation Yrotation Xrotation
		JOINT Spine
		{
			OFFSET -0.087000 1.940000 -0.288900
			CHANNELS 3 Zrotation Yrotation Xrotation
			JOINT Spine1
			{
				OFFSET 0.000000 1.950000 0.060000
				CHANNELS 3 Zrotation Yrotation Xrotation
				JOINT Neck
				{
					OFFSET 0.000000 0.000000 0.000000
					CHANNELS 3 Zrotation Yrotation Xrotation
					JOINT Neck1
					{
						OFFSET 0.000000 1.600000 0.340000
						CHANNELS 3 Zrotation Yrotation Xrotation
						JOINT Head
						{
							OFFSET 0.000000 1.667000 -0.240000
							CHANNELS 3 Zrotation Yrotation Xrotation
							End Site
							{
								OFFSET 0.000000 0.000000 0.000000
							}
						}
					}
				}
				JOINT LeftShoulder
				{
					OFFSET 0.000000 0.000000 0.000000
					CHANNELS 3 Zrotation Yrotation Xrotation
					JOINT LeftArm
					{
						OFFSET 2.700000 1.550000 -0.730000
						CHANNELS 3 Zrotation Yrotation Xrotation
						JOINT LeftForeArm
						{
							OFFSET 5.450000 0.000000 0.000000
							CHANNELS 3 Zrotation Yrotation Xrotation
							JOINT LeftHand
							{
								OFFSET 3.450000 0.000000 0.000000
								CHANNELS 3 Zrotation Yrotation Xrotation
								JOINT LeftHandIndex1
								{
									OFFSET 0.750000 0.000000 0.000000
									CHANNELS 3 Zrotation Yrotation Xrotation
									End Site
									{
										OFFSET 0.000000 0.000000 0.000000
									}
								}
							}
						}
					}
				}
				JOINT RightShoulder
				{
					OFFSET 0.000000 0.000000 0.000000
					CHANNELS 3 Zrotation Yrotation Xrotation
					JOINT RightArm
					{
						OFFSET -2.700000 1.550000 -0.730000
						CHANNELS 3 Zrotation Yrotation Xrotation
						JOINT RightForeArm
						{
							OFFSET -5.450000 0.000000 0.000000
							CHANNELS 3 Zrotation Yrotation Xrotation
							JOINT RightHand
							{
								OFFSET -3.450000 0.000000 0.000000
								CHANNELS 3 Zrotation Yrotation Xrotation
								JOINT RightHandIndex1
								{
									OFFSET -0.750000 0.000000 0.000000
									CHANNELS 3 Zrotation Yrotation Xrotation
									End Site
									{
										OFFSET 0.000000 0.000000 0.000000
									}
								}
							}
						}
					}
				}
			}
		}
	}
}
MOTION
Frames: 8
Frame Time: 0.016667
1.661940 16.412000 -1.794150 5.202072 18.835267 -0.389644 -14.705072 10.684608 4.736106 8.058977 -10.055416 -31.115563 -19.239205 18.797772 49.899888 0.797802 11.115356 0.696600 0.895900 0.529250 0.693470 19.008653 -10.752416 2.888351 8.542476 4.977272 -17.249210 -10.485109 -7.238110 72.940057 -2.236855 -10.708962 0.966968 0.327990 -0.053990 0.051140 -5.576085 1.393294 -8.973853 24.039251 -5.698395 26.563021 -15.438525 2.893616 11.815823 2.117824 -3.670776 -12.165821 -12.954240 -7.134906 49.131233 10.155920 -10.437700 -21.649150 -37.619197 -26.477297 8.276355 -43.663220 -27.916798 13.273672 168.156610 -47.535665 -164.581229 -3.145823 3.119768 0.796530 -0.264820 0.183460 0.287840 32.712093 29.383785 9.453839 52.561634 13.434669 -8.808051 11.908790 26.704722 -0.196672 1.988628 -1.435495 -0.156560 0.335270 -0.301590 -0.245830 
1.638840 16.264570 -1.799460 5.085779 19.674995 -1.233046 -14.747669 10.527021 4.843918 9.271050 -9.753682 -32.571274 -18.924808 20.619138 53.575173 1.019358 11.934730 0.433550 0.896570 0.527390 0.697320 18.992994 -10.548917 3.003775 8.066791 6.279613 -17.171972 -8.233141 -9.586090 76.716746 -2.428390 -11.363131 0.794643 0.299500 -0.088810 0.057900 -5.495067 1.434023 -9.173882 22.969627 -5.364733 27.992981 -15.471547 3.400626 10.857272 2.375872 -3.634834 -12.312932 -12.638085 -7.331026 50.108182 11.559030 -10.693970 -23.105230 -37.405033 -25.607179 8.039267 -42.914922 -24.862367 10.018405 170.143568 -47.331272 -170.523823 -3.138495 3.142675 0.825960 -0.302730 0.216400 0.275120 32.027839 29.380077 9.716671 53.017757 14.094598 -9.442385 10.359258 29.175179 -0.406512 1.980497 -1.426716 -0.130900 0.312420 -0.304490 -0.244940 
1.620830 16.130170 -1.815790 4.629691 20.254210 -1.525138 -14.791442 10.325673 4.953053 10.328687 -9.516799 -34.491753 -18.594184 22.092631 56.435791 1.180139 12.626347 0.240556 0.822060 0.426970 0.667650 18.993063 -10.256193 3.180511 7.672969 7.976816 -18.784777 -6.586831 -12.064195 81.450910 -2.623886 -12.206687 0.571376 0.239050 -0.070290 0.054910 -5.415280 1.429304 -9.374485 22.293843 -5.357060 28.975924 -16.117916 3.410032 9.046375 2.836446 -3.523653 -12.119907 -11.913433 -7.390701 50.258805 11.531100 -10.876500 -22.500710 -37.020665 -23.648911 7.781005 -42.250304 -20.595287 5.782627 171.260029 -48.056182 -175.453151 -3.192318 3.142480 0.843430 -0.301440 0.202510 0.247440 30.617314 28.276462 9.279221 53.963172 14.917784 -9.139269 10.905228 30.456546 -0.185760 2.010770 -1.380858 -0.157760 0.313670 -0.263750 -0.253390 
1.582050 16.022380 -1.834230 4.395731 21.040568 -1.564202 -14.819671 10.143632 5.010977 10.836737 -9.545868 -36.010724 -17.913101 22.771707 58.415414 1.286901 13.039215 0.145779 0.717690 0.306220 0.569040 19.001956 -10.018177 3.349114 6.746184 9.403369 -21.297616 -5.466343 -14.590169 86.010340 -2.798160 -13.075724 0.371770 0.164420 0.001060 0.056760 -5.375377 1.451198 -9.540727 21.611167 -5.366664 29.946952 -16.833596 3.307110 7.035189 2.810477 -3.425502 -11.778882 -11.331467 -7.408034 50.080100 12.979420 -11.889010 -21.093640 -36.422992 -21.826819 7.190890 -39.420223 -16.981876 0.953931 169.499039 -51.367745 -174.410576 -3.249874 3.157285 0.833830 -0.267760 0.155180 0.238290 29.908384 26.757968 8.924956 54.178279 14.870306 -8.590281 9.159891 30.306374 -0.365216 2.023653 -1.320237 -0.183370 0.320010 -0.199270 -0.235050 
1.515730 15.948930 -1.860820 4.249368 21.782756 -2.364335 -14.879527 10.092046 4.999654 10.986746 -9.542767 -36.919147 -16.041870 22.988211 61.136631 1.396188 13.373193 0.058197 0.672270 0.255100 0.515180 18.962607 -9.756621 3.550140 5.616792 10.733889 -23.476868 -4.038525 -17.658115 90.355293 -3.009165 -13.971415 0.165455 0.119020 0.019480 0.058640 -5.221582 1.260910 -9.693360 19.983088 -5.179272 31.744838 -16.117594 3.230936 5.976490 2.768315 -3.584976 -11.683877 -11.295624 -7.095417 50.862991 14.627950 -12.916970 -20.660780 -36.074816 -20.576333 6.481804 -36.302224 -13.881880 -4.277495 166.322361 -58.949345 -171.855105 -3.234473 3.210001 0.825640 -0.269370 0.141090 0.234820 29.688331 26.017734 9.193178 51.181304 14.497983 -9.247376 8.063735 32.982695 -0.420726 2.009416 -1.314698 -0.174130 0.303390 -0.176660 -0.215300 
1.437430 15.913220 -1.894970 3.685028 22.819466 -3.755026 -14.922430 10.030340 4.929218 11.525341 -9.430912 -37.215941 -14.447669 22.923422 63.007790 1.476887 13.502597 0.035813 0.683150 0.287570 0.536980 18.941667 -9.540468 3.732566 4.239693 11.817590 -25.862015 -2.805682 -20.716350 93.995484 -3.238796 -14.758731 -0.002302 0.110400 -0.008480 0.035370 -5.129350 1.161528 -9.796319 18.941280 -5.761426 33.827889 -16.197837 2.619653 5.765600 3.065207 -2.749254 -11.761433 -9.460272 -7.506160 52.089709 15.591700 -13.192380 -21.735530 -33.348199 -20.267309 6.219760 -33.786626 -10.893246 -8.794161 159.312037 -67.579256 -164.906409 -3.174117 3.223139 0.832080 -0.303680 0.178330 0.240960 26.456477 25.381194 9.114617 49.912914 15.445784 -9.960648 6.049606 36.886156 -0.946259 2.019302 -1.279290 -0.155120 0.316200 -0.214220 -0.201130 
1.353230 15.917720 -1.918810 2.646867 23.232317 -6.120558 -14.973629 10.164479 4.753094 11.926631 -9.152921 -36.502193 -11.768007 22.097302 65.053304 1.441943 13.551821 -0.001694 0.624760 0.219210 0.503140 18.885964 -9.342920 3.902726 2.478153 12.624360 -27.159155 -0.922308 -24.352544 96.608377 -3.432255 -15.526224 -0.181537 0.071150 0.002800 0.022740 -4.977610 0.808968 -9.831559 17.892682 -6.471491 37.140680 -15.613126 2.049580 5.228249 2.982010 -2.848573 -11.979967 -9.850448 -6.883079 53.973384 17.779960 -13.883570 -23.115640 -31.414022 -19.940991 5.915447 -31.183871 -7.911653 -11.407348 138.126120 -76.244301 -143.438434 -3.228889 3.153356 0.875250 -0.325130 0.180860 0.203030 24.822764 25.182931 9.360734 46.037277 14.591412 -11.587752 6.519833 41.225111 -0.692973 1.988363 -1.216671 -0.181600 0.343110 -0.161170 -0.206470 
1.267060 15.941280 -1.941940 1.743236 23.300607 -8.431363 -14.992871 10.328324 4.503179 12.305448 -8.595428 -35.119806 -9.756508 21.090270 65.482124 1.429602 13.314736 0.046318 0.609470 0.211720 0.475360 18.850442 -9.181126 4.081733 -0.187322 13.339221 -28.223575 1.775012 -28.414490 98.028307 -3.627514 -16.269391 -0.346161 0.034800 -0.011170 0.033620 -4.904860 0.480879 -9.817551 17.103284 -7.350923 40.592829 -15.303766 1.208804 3.993533 2.499351 -3.420735 -11.934554 -11.414005 -5.531969 55.696352 20.206920 -14.706410 -23.787080 -29.284012 -20.804355 4.021343 -28.453615 -2.614412 -18.781824 55.585628 -86.592598 -56.596667 -2.917931 1.649000 0.872810 -0.353120 0.200000 0.191640 23.664792 25.895502 10.551372 41.730591 12.239293 -13.693210 8.529343 46.253661 -0.035066 1.981704 -1.252210 -0.140790 0.313180 -0.155420 -0.178130 
